<svg viewBox="0 0 1024 1024" class="w-full h-full block" fill="none" xmlns="http://www.w3.org/2000/svg"><defs><linearGradient id="bg_grad" x1="10%" y1="0%" x2="90%" y2="100%" gradientUnits="userSpaceOnUse">
            <stop stop-color="#3B82F6"/>
            <stop offset="1" stop-color="#d71d1d"/>
        </linearGradient><filter id="filter_mark_inner_shadow_1_50_7f1d1d" x="-100%" y="-100%" width="300%" height="300%">
                    <feComponentTransfer in="SourceGraphic" result="layer_0_alpha">
                        <feFuncA type="table" tableValues="1 0"/>
                    </feComponentTransfer>
                    <feGaussianBlur in="layer_0_alpha" stdDeviation="25" result="layer_0_blur"/>
                    <feOffset in="layer_0_blur" dx="10" dy="20" result="layer_0_offset"/>
                    <feFlood flood-color="#7f1d1d" flood-opacity="1" result="layer_0_flood"/>
                    <feComposite in="layer_0_flood" in2="layer_0_offset" operator="in" result="layer_0_shadow"/>
                    <feComposite in="layer_0_shadow" in2="SourceAlpha" operator="in" result="layer_0_final"/>
                    <feMerge result="layer_0">
                        <feMergeNode in="SourceGraphic"/>
                        <feMergeNode in="layer_0_final"/>
                    </feMerge>
                </filter><clipPath id="bg_clip"><rect x="0" y="0" width="1024" height="1024" rx="102.4" ry="102.4"/></clipPath></defs><g><path d="M0.999996,779.000000   C1.000000,606.641785 1.000000,434.283539 1.185049,261.123840   C2.160271,251.588211 2.824705,242.840408 3.767956,234.122772   C5.494749,218.163513 6.788623,202.123337 9.402046,186.305084   C11.418365,174.100922 15.176873,162.184601 18.416531,149.919327   C19.849121,146.194138 21.025949,142.689926 22.458923,138.971008   C23.871019,135.892761 25.026970,133.029190 26.433701,129.955902   C27.162378,128.532959 27.640276,127.319748 28.382616,125.917953   C29.173990,124.550179 29.700920,123.370979 30.494265,121.997192   C31.907516,119.593491 33.054352,117.384392 34.468903,114.984665   C36.186012,112.214714 37.635410,109.635391 39.263821,106.847328   C39.699902,106.156433 39.956963,105.674278 40.385651,105.030258   C40.778156,104.639717 40.954151,104.380569 41.266609,103.879456   C41.710781,103.180283 41.973621,102.692604 42.494377,102.034897   C43.241642,100.976479 43.730991,100.088097 44.390640,99.037598   C44.782459,98.649940 44.964581,98.396133 45.366013,97.942474   C46.132648,96.892067 46.640572,96.013237 47.429474,94.973679   C48.529446,93.591698 49.348442,92.370445 50.345680,90.995117   C50.754082,90.621033 50.935734,90.366417 51.362633,89.932999   C52.482079,88.564644 53.307758,87.340492 54.310749,85.963959   C54.717014,85.596321 54.910954,85.353127 55.257362,84.936272   C55.680161,84.576012 55.883961,84.334854 56.331886,83.908737   C57.082726,82.849762 57.557938,81.949112 58.030720,81.037109   C58.028286,81.025749 58.050377,81.018829 58.273849,80.900101   C58.652809,80.489502 58.808296,80.197617 59.095097,79.727386   C59.414837,79.320229 59.624233,79.112556 60.078506,78.825745   C60.574619,78.512863 60.732906,78.235336 60.776676,77.865288   C60.776081,77.837715 60.803844,77.790070 61.141457,77.738373   C64.402428,74.313507 67.325783,70.940346 70.327812,67.442398   C70.406487,67.317612 70.664696,67.174866 70.836517,67.208908   C71.277748,67.109169 71.337006,66.912064 71.251434,66.530678   C71.316772,66.409714 71.552589,66.268326 71.839127,66.260025   C72.402679,65.792786 72.679703,65.333855 73.066757,64.682510   C73.360626,64.248077 73.593842,64.071175 74.238586,63.967918   C75.991272,62.582539 77.381821,61.188633 78.793495,59.779106   C78.814629,59.763489 78.866623,59.755783 79.088867,59.689888   C79.597069,59.467628 79.791359,59.234760 79.905731,58.918205   C79.917496,58.911015 79.938858,58.893585 80.174515,58.807373   C80.598495,58.452244 80.786804,58.183331 81.141525,57.761253   C81.542274,57.417465 81.788597,57.243828 82.370163,57.061203   C83.489120,56.380535 84.284798,55.725842 85.271194,54.934818   C85.703621,54.595863 85.910683,54.362511 86.409836,54.027351   C87.862274,53.006996 88.987991,52.057713 90.313187,50.983688   C90.763504,50.665085 90.980453,50.438747 91.482735,50.099701   C92.917389,49.068768 94.032845,48.118069 95.451691,47.088348   C96.535477,46.369881 97.315880,45.730438 98.298599,44.970314   C98.756180,44.661201 98.979210,44.440228 99.473160,44.112011   C100.580772,43.431877 101.385216,42.826450 102.487152,42.130516   C103.583870,41.430580 104.383087,40.821152 105.480698,40.123917   C106.589935,39.434444 107.400795,38.832779 108.468430,38.113117   C109.051865,37.559498 109.378510,37.123878 109.713036,36.654804   C109.720917,36.621349 109.789490,36.626125 110.141182,36.691906   C112.027618,35.872837 113.562370,34.987988 115.402824,34.034481   C116.536362,33.379066 117.364189,32.792305 118.520973,32.143608   C119.944656,31.437656 121.039391,30.793634 122.398949,30.064985   C123.142159,29.698267 123.620544,29.416178 124.370239,29.058643   C125.120346,28.691414 125.599144,28.399630 126.353020,28.033127   C127.122719,27.679171 127.617325,27.399931 128.382263,27.047070   C129.139236,26.698000 129.625900,26.422552 130.483078,26.091969   C133.614243,24.744263 136.374863,23.451696 139.478119,22.106434   C141.245636,21.411285 142.670563,20.768831 144.487823,20.080463   C148.294037,18.742577 151.707886,17.450603 155.526154,16.116489   C168.380035,13.315358 180.719681,9.784486 193.306885,7.993709   C208.871231,5.779372 224.650635,5.106280 240.317154,3.564505   C245.908081,3.014290 251.440750,1.872023 257.000000,0.999999   C428.024902,1.000000 599.049805,1.000000 770.889709,1.125362   C778.789612,2.008781 785.871826,2.793126 792.960022,3.518971   C804.674683,4.718580 816.426392,5.624939 828.099976,7.137428   C837.789795,8.392896 847.389587,10.343206 857.300781,12.202061   C862.049622,13.616468 866.527039,14.814518 871.267029,16.230659   C874.042236,17.224579 876.554810,18.000408 879.271057,18.875977   C879.474670,18.975718 879.917358,19.075520 880.164673,19.230095   C880.964661,19.561523 881.517273,19.738373 882.285095,20.188015   C884.088501,20.797625 885.676819,21.134441 887.328857,21.492298   C887.392700,21.513336 887.492920,21.602739 887.574524,21.854631   C888.127625,22.322247 888.599121,22.537971 889.260986,22.866358   C889.451416,22.979021 889.878052,23.096159 890.075745,23.373852   C892.184875,24.434528 894.096252,25.217514 896.216858,26.261965   C897.684387,26.804184 898.942749,27.084938 900.312134,27.412642   C900.423157,27.459591 900.611694,27.609953 900.638062,27.936337   C901.843140,28.644093 903.021790,29.025465 904.293884,29.455746   C904.387329,29.504652 904.543640,29.646179 904.595215,29.969429   C905.822937,30.729725 906.999146,31.166771 908.230774,31.622730   C908.286255,31.641642 908.369873,31.723822 908.442200,32.032291   C909.418457,32.700218 910.322449,33.059681 911.313660,33.467484   C911.400940,33.515823 911.545959,33.652946 911.582092,33.967327   C912.713013,34.897053 913.807861,35.512398 915.135986,36.271961   C915.723389,36.457996 916.077393,36.499813 916.654785,36.661972   C917.179382,36.936359 917.480591,37.090397 917.789185,37.448990   C917.796631,37.653549 918.049561,37.975452 918.226196,38.144646   C918.402771,38.313839 918.852722,38.503994 918.852722,38.503994   C918.852722,38.503994 919.337952,38.447430 919.405151,38.483276   C919.472351,38.519123 919.573303,38.633251 919.624268,38.894142   C920.093384,39.470352 920.511536,39.785675 921.149048,40.236656   C921.701721,40.383755 922.034973,40.395195 922.446533,40.444221   C922.524780,40.481812 922.641052,40.610764 922.680420,40.871193   C923.135193,41.443737 923.550598,41.755852 924.174072,42.211685   C924.707947,42.391407 925.033630,42.427414 925.421265,42.495575   C925.483215,42.527733 925.572632,42.634823 925.619141,42.897194   C926.080505,43.479801 926.495483,43.800041 927.120544,44.270466   C927.661743,44.466015 927.992737,44.511379 928.373596,44.578804   C928.423401,44.600861 928.492188,44.685429 928.536377,44.995239   C929.451416,45.732361 930.322144,46.159664 931.247559,46.615700   C931.302124,46.644436 931.380310,46.739956 931.434570,47.065750   C932.721497,48.139736 933.954163,48.887920 935.235352,49.660423   C935.283936,49.684742 935.348938,49.771801 935.410339,49.978741   C935.471741,50.185680 935.822571,50.436310 935.822571,50.436310   C935.822571,50.436310 936.253479,50.419365 936.336121,50.475677   C936.418762,50.531990 936.552734,50.680595 936.565552,51.005062   C937.725464,52.221962 938.872620,53.114399 940.209961,54.169174   C940.717896,54.393631 941.035767,54.455750 941.410950,54.549534   C941.468323,54.581200 941.549805,54.683949 941.561951,55.021091   C943.110779,56.449272 944.647522,57.540310 946.233887,58.662910   C946.283569,58.694473 946.346558,58.793880 946.389282,59.020023   C946.607361,59.543056 946.866943,59.678658 947.254150,59.677521   C947.297363,59.702072 947.347473,59.787998 947.394958,60.007664   C947.633850,60.509293 947.896729,60.617348 948.296753,60.590446   C948.362366,60.629395 948.462341,60.744835 948.500000,60.948509   C948.716797,61.418045 948.960388,61.506779 949.355835,61.484844   C949.443054,61.551304 949.585022,61.718513 949.594238,61.911964   C949.603394,62.105415 949.898804,62.355003 949.898804,62.355003   C949.898804,62.355003 950.282654,62.306927 950.401794,62.395969   C950.520935,62.485012 950.707886,62.716427 950.690002,62.899136   C950.672119,63.081844 950.933411,63.339149 950.933411,63.339149   C950.933411,63.339149 951.297974,63.298607 951.404297,63.377438   C951.510559,63.456268 951.678772,63.660515 951.648193,63.993210   C955.528870,68.003090 959.440186,71.680275 963.449768,75.437500   C963.548035,75.517548 963.706055,75.715721 963.689819,75.897705   C963.673645,76.079689 963.933838,76.335602 963.933838,76.335602   C963.933838,76.335602 964.296936,76.297409 964.413696,76.396980   C964.530518,76.496552 964.714417,76.742348 964.693420,76.931610   C964.789612,77.403145 964.997375,77.510925 965.371826,77.509941   C965.447998,77.575661 965.570557,77.735191 965.587769,77.956802   C965.752380,78.482681 965.994873,78.625145 966.514771,78.774330   C966.921143,79.188713 967.115234,79.456329 967.318848,79.989151   C967.525574,80.550667 967.787659,80.729385 968.179871,80.789703   C968.215027,80.810661 968.241028,80.888290 968.222168,81.207092   C968.819580,82.329079 969.435852,83.132271 970.152588,84.269653   C971.616333,85.856567 972.979431,87.109283 974.441895,88.449226   C974.541260,88.536453 974.688843,88.755798 974.664307,88.954391   C974.741028,89.449333 974.947998,89.588623 975.316162,89.615784   C975.371643,89.660698 975.447449,89.781609 975.467041,90.001816   C975.625122,90.524498 975.860779,90.676941 976.240356,90.713135   C976.287231,90.746925 976.341125,90.849098 976.329346,91.203949   C978.001587,93.509857 979.685608,95.460907 981.425354,97.461212   C981.481140,97.510475 981.554504,97.639961 981.525024,97.889084   C981.644897,98.434647 981.794312,98.731087 982.029175,99.329437   C982.748901,100.419716 983.383179,101.208084 984.105957,102.297119   C984.795044,103.405647 985.395630,104.213524 986.104858,105.257904   C986.609985,105.786850 987.006409,106.079292 987.462036,106.428482   C987.521118,106.485222 987.588623,106.634598 987.529541,107.009834   C989.766602,111.964806 991.924683,116.620132 994.383667,121.110703   C1003.226440,137.259323 1009.712708,154.352737 1013.799438,172.234406   C1016.639954,184.663284 1018.716980,197.314560 1020.286804,209.971695   C1021.696228,221.335541 1021.820984,232.853561 1022.776489,244.281509   C1023.133606,248.553116 1024.236938,252.762329 1025.000000,257.000000   C1025.000000,430.691559 1025.000000,604.383118 1024.702148,778.747925   C1023.698792,784.617615 1022.789856,789.796082 1022.325195,795.014038   C1020.795959,812.187988 1020.502869,829.555420 1017.676880,846.505432   C1015.158020,861.613953 1010.890198,876.627502 1005.611633,891.029602   C998.991150,909.092834 990.511780,926.450623 978.280701,941.659851   C975.190796,945.502075 972.664368,949.797424 969.571716,954.021606   C967.834839,956.108276 966.405334,958.057983 964.809692,960.234558   C964.102173,960.978577 963.560791,961.495789 962.780212,962.097595   C962.366699,962.461914 962.192383,962.741638 961.882080,963.186890   C961.559753,963.574829 961.336914,963.751160 960.819153,963.761963   C958.822083,965.486755 957.083496,967.330994 955.303955,969.211426   C955.263000,969.247559 955.159119,969.213562 954.927002,969.288940   C954.398926,969.545105 954.216125,969.805359 954.125610,970.148254   C954.104614,970.151367 954.120300,970.190735 953.757935,970.163086   C951.673706,971.814758 949.951965,973.494080 948.216614,975.195618   C948.203003,975.217834 948.152954,975.203308 947.918579,975.271118   C947.383667,975.510315 947.191406,975.763855 947.096069,976.108643   C947.084900,976.117798 947.080811,976.146484 946.717407,976.130188   C944.322021,977.804077 942.289978,979.494202 940.240417,981.220947   C940.222839,981.257568 940.146667,981.229492 939.910583,981.284912   C939.368408,981.494751 939.162292,981.735046 939.029602,982.044312   C939.002991,982.027405 939.044373,982.077026 938.707520,982.065735   C937.617432,982.739807 936.864197,983.425110 936.075439,984.075562   C936.039978,984.040771 936.087952,984.127747 935.711548,984.104126   C931.150146,986.632935 926.965088,989.185486 922.440186,991.827026   C919.998840,993.197876 917.897278,994.479614 915.533813,995.854309   C914.788879,996.224792 914.305969,996.502197 913.549438,996.849365   C912.795593,997.209717 912.315186,997.500427 911.463989,997.840454   C908.337341,999.193115 905.581543,1000.496460 902.441711,1001.843506   C898.974060,1003.192566 895.890503,1004.497925 892.411621,1005.842163   C886.362793,1008.007019 880.709167,1010.132935 874.919189,1012.362915   C874.782837,1012.466919 874.459412,1012.580933 874.027222,1012.453369   C871.787842,1012.491394 869.943787,1012.481628 868.179932,1012.853027   C860.387451,1014.494141 852.694946,1016.931152 844.824280,1017.813782   C828.165039,1019.682007 811.419312,1020.786804 794.704285,1022.146057   C789.239014,1022.590515 783.750732,1022.765137 778.292236,1023.271240   C777.151184,1023.377075 776.095215,1024.399780 775.000000,1025.000000   C601.308411,1025.000000 427.616852,1025.000000 253.206970,1024.717041   C251.427750,1024.027954 250.389816,1023.347168 249.302490,1023.256165   C228.481659,1021.512451 207.602951,1020.301208 186.849976,1017.968079   C175.199295,1016.658203 163.458435,1014.461548 152.292068,1010.961304   C138.409882,1006.609802 125.091377,1000.467590 111.492325,995.194336   C110.037437,994.630249 108.335258,994.703857 106.681023,994.490723   C106.614243,994.499878 106.581398,994.369141 106.593628,994.024048   C106.004311,992.921814 105.548080,991.939270 104.778374,991.442993   C98.239899,987.227905 91.669533,983.060242 85.036011,978.997070   C84.142410,978.449707 82.844879,978.561768 81.879517,978.227905   C82.024689,978.087341 81.739769,978.378845 81.736824,978.008606   C80.054497,976.576782 78.375107,975.515198 76.644592,974.449829   C76.593460,974.446167 76.586578,974.343872 76.625839,973.987183   C75.401810,970.487366 73.572922,968.097229 69.681808,968.404541   C69.649521,968.399231 69.647606,968.333862 69.590256,968.086914   C69.241684,967.701111 68.950470,967.562195 68.632538,967.422058   C68.605812,967.420776 68.585373,967.371277 68.603027,967.104736   C68.462654,966.520996 68.304634,966.203674 67.998032,965.697815   C67.628349,965.275940 67.383820,965.070557 66.999313,964.577393   C64.298744,961.786804 61.714722,959.312012 58.905914,956.689270   C58.335773,956.479980 57.990429,956.418579 57.611145,956.352661   C57.577206,956.348083 57.573513,956.279663 57.654694,955.912842   C56.030033,953.857544 54.324196,952.169128 52.567474,950.469116   C52.516590,950.457642 52.524227,950.353516 52.505745,950.100769   C52.220413,949.666687 51.953571,949.485413 51.674721,949.289917   C51.662720,949.275757 51.630829,949.256653 51.701096,948.898743   C50.583576,946.955200 49.395790,945.369507 48.129044,943.440552   C45.227478,938.964172 44.243584,933.336487 38.533112,931.464478   C38.453957,931.442444 38.459709,931.278259 38.570824,930.907715   C35.700539,925.772400 32.719143,921.007751 29.797039,916.196350   C29.856331,916.149658 29.716631,916.206787 29.796566,915.821228   C25.985380,906.229370 22.094259,897.023010 18.161942,887.420715   C17.794851,885.570618 17.489998,884.111389 17.139753,882.663086   C14.108368,870.128113 10.081120,857.735535 8.275252,845.026978   C5.877759,828.154968 5.327240,811.026001 3.730871,794.031189   C3.256379,788.979858 1.933911,784.008179 0.999996,779.000000z" fill="url(#bg_grad)" clip-path="url(#bg_clip)"/></g><g filter="url(#filter_mark_inner_shadow_1_50_7f1d1d)"><path d="M321.861450,294.630615   C300.705872,276.401428 276.063171,267.350159 248.246887,266.491821   C235.580963,266.100983 229.164062,272.061371 229.163071,284.599365   C229.155685,378.587311 229.149551,472.575226 229.159164,566.563171   C229.159576,570.560608 229.071136,574.582214 229.459274,578.550049   C230.106567,585.166870 236.175217,588.216431 241.843475,584.696106   C244.491455,583.051575 246.759369,580.724609 248.999435,578.505005   C263.437958,564.198547 277.832794,549.847900 292.219757,535.489502   C313.446960,514.304382 334.629974,493.074921 355.891968,471.924835   C360.658386,467.183502 362.776855,461.761841 362.704132,454.924805   C362.461334,432.097137 362.817535,409.263428 362.612183,386.434998   C362.287018,350.285248 349.547150,319.489990 321.861450,294.630615 M227.945847,719.388611   C227.947937,726.183044 228.426880,733.017639 227.858337,739.764038   C226.431305,756.696472 236.627319,760.844238 248.506699,761.786621   C250.825470,761.970581 253.203476,762.111145 255.495392,761.815735   C269.471008,760.014893 283.656494,759.083435 297.345795,755.981262   C324.191498,749.897644 347.868622,736.811096 367.490051,717.675232   C411.839996,674.423096 455.542145,630.506470 499.486969,586.839172   C511.981598,574.423523 524.402283,561.933472 536.861084,549.481689   C621.939026,464.451721 706.995422,379.400177 792.148499,294.445496   C797.755737,288.851318 799.719055,282.577087 796.990601,275.421906   C794.115479,267.882294 787.907104,264.932007 779.914124,264.950439   C740.592224,265.041168 701.267761,264.779114 661.949524,265.171875   C652.379944,265.267456 642.606689,266.450470 633.314697,268.720367   C608.403137,274.805939 586.585510,286.793213 568.392212,305.150482   C548.705505,325.014648 528.880127,344.741943 509.050690,364.464050   C463.830597,409.439331 418.529114,454.332825 373.353027,499.352203   C359.699860,512.958069 346.405609,526.923340 332.845520,540.623596   C319.159973,554.450562 305.353973,568.158386 291.583954,581.901611   C290.172333,583.310425 288.607056,584.564392 287.179962,585.958740   C282.897003,590.143433 278.522614,594.244080 274.409515,598.591064   C264.892883,608.648682 254.565475,617.245117 240.399841,619.969849   C233.082275,621.377380 228.196304,627.476746 228.026413,634.825928   C227.788803,645.105652 227.494141,655.388000 227.510956,665.668823   C227.539749,683.265869 227.791016,700.862549 227.945847,719.388611 M717.437927,653.065186   C705.487976,640.758850 693.507996,628.481506 681.599854,616.134827   C675.013062,609.305420 668.569214,602.338440 662.021423,595.471130   C642.380737,574.871826 622.705505,554.305542 603.085449,533.686707   C600.368774,530.831787 597.988098,530.559082 595.064453,533.489258   C564.931702,563.689270 534.755920,593.846558 504.544739,623.968140   C501.700470,626.803955 501.721985,629.134644 504.509186,632.037354   C516.038330,644.044067 527.338806,656.271057 538.908325,668.238159   C554.884766,684.763367 571.029663,701.125610 587.096252,717.563721   C588.259888,718.754272 589.282471,720.096863 590.525330,721.193359   C599.476440,729.089417 607.745789,738.027527 617.602051,744.570251   C635.939880,756.743225 657.020081,761.479004 678.818787,761.777771   C711.142395,762.220703 743.476929,761.915833 775.806458,761.826355   C779.106689,761.817200 782.458618,761.359070 785.694946,760.675598   C800.467041,757.556030 800.661804,741.302795 794.315002,733.937561   C791.925598,731.164795 789.539246,728.381592 787.011658,725.736816   C764.004272,701.663147 740.965942,677.619080 717.437927,653.065186  zz" fill="#ffffff"/></g></svg>